<?xml version="1.0" standalone="no"?>
<!DOCTYPE svg PUBLIC "-//W3C//DTD SVG 20010904//EN"
 "http://www.w3.org/TR/2001/REC-SVG-20010904/DTD/svg10.dtd">
<svg version="1.0" xmlns="http://www.w3.org/2000/svg"
 width="1024.000000pt" height="1024.000000pt" viewBox="255 175 520 610"
 preserveAspectRatio="xMidYMid meet">

<g transform="translate(0.000000,1024.000000) scale(0.100000,-0.100000)"
fill="#E46A2E" stroke="none">
<path d="M4120 7939 c-53 -18 -75 -32 -127 -85 -35 -35 -63 -71 -63 -79 0 -21
-13 -19 -72 11 -159 80 -363 81 -528 2 -123 -59 -247 -210 -290 -353 l-12 -40
-106 0 c-95 0 -113 -3 -163 -26 -118 -56 -180 -147 -187 -275 -7 -123 14 -182
91 -259 86 -86 116 -95 359 -108 l197 -11 88 94 c151 160 329 273 534 339 126
39 200 51 334 51 l110 0 100 120 c55 66 115 149 134 184 29 56 34 75 34 134 0
218 -220 370 -433 301z"/>
<path d="M4210 7073 c-166 -19 -262 -40 -376 -83 -176 -66 -331 -169 -484
-324 l-84 -86 23 -72 c13 -40 48 -143 79 -230 l55 -156 67 87 c191 247 489
437 795 506 81 18 207 35 268 35 37 0 67 3 67 6 0 17 -252 309 -278 322 -10 5
-64 3 -132 -5z"/>
<path d="M5150 6529 c-98 -82 -118 -103 -111 -117 23 -42 216 -262 229 -262 4
0 50 39 102 86 l95 85 120 -6 c66 -3 167 -10 224 -16 85 -8 121 -7 200 6 52 9
150 20 216 24 l120 6 -95 63 c-52 34 -158 93 -235 131 l-140 70 -260 16 c-377
22 -324 32 -465 -86z"/>
<path d="M4590 6610 c-138 -9 -250 -31 -388 -76 -241 -79 -418 -204 -650 -462
l-70 -78 132 -221 c73 -122 138 -229 146 -238 12 -14 17 -3 38 92 30 135 70
240 122 320 43 65 130 167 137 160 2 -3 -9 -26 -25 -53 -40 -69 -77 -166 -97
-257 -23 -104 -17 -298 14 -411 74 -276 340 -604 671 -826 113 -76 318 -174
465 -222 145 -47 330 -88 410 -91 l47 -2 29 95 c65 217 90 397 77 550 -32 371
-172 720 -395 985 -170 202 -422 350 -660 387 -122 19 -87 32 70 25 116 -5
159 -11 237 -35 52 -16 110 -36 128 -46 32 -17 33 -16 23 1 -21 35 -326 406
-336 408 -5 1 -62 -1 -125 -5z m977 -1755 c27 -19 40 -77 25 -110 -14 -31 -66
-58 -95 -49 -68 20 -91 101 -42 149 28 29 79 33 112 10z m-492 -217 c15 -14
28 -38 31 -59 5 -28 1 -41 -21 -67 -54 -64 -145 -28 -145 58 0 77 79 116 135
68z"/>
<path d="M5685 6012 c-260 -118 -235 -96 -186 -162 14 -19 60 -85 102 -147
l75 -112 130 60 c71 32 140 59 152 59 38 0 155 -33 517 -144 186 -58 340 -104
341 -103 9 9 -108 159 -181 233 -151 154 -268 217 -578 314 -229 72 -217 72
-372 2z"/>
<path d="M3340 5614 c-107 -29 -213 -58 -235 -64 -43 -12 -71 -42 -221 -240
-173 -228 -246 -417 -261 -680 l-6 -114 64 69 c157 170 327 351 455 483 135
139 141 143 204 161 36 10 121 35 189 55 68 19 146 39 173 42 26 4 48 8 48 11
0 2 -22 36 -48 76 -27 40 -60 92 -74 117 -15 25 -41 66 -60 91 l-33 45 -195
-52z"/>
<path d="M5868 5221 c-36 -3 -70 -9 -74 -13 -4 -4 1 -46 10 -93 10 -47 20
-133 23 -191 4 -63 11 -107 17 -109 6 -2 66 -20 132 -41 l122 -37 6 -39 c4
-22 4 -43 1 -49 -8 -13 -6 -12 69 16 187 70 415 70 664 -2 30 -8 52 -16 50
-18 -2 -2 -41 1 -88 6 -162 18 -412 -19 -637 -92 l-63 -21 0 -121 c0 -69 7
-152 15 -192 38 -177 177 -373 360 -504 38 -27 46 -30 42 -15 -31 101 -101
479 -95 515 3 22 57 -60 357 -541 124 -200 157 -248 163 -240 2 3 31 39 64 80
123 152 169 240 198 382 40 193 -1 427 -108 617 -26 47 -27 54 -10 47 10 -4
44 -17 74 -29 142 -53 395 -222 505 -336 63 -66 61 -47 -5 38 -84 109 -175
198 -265 260 -82 57 -268 150 -355 177 -37 11 -63 27 -80 48 -51 64 -137 150
-209 207 -268 216 -581 319 -883 290z"/>
<path d="M3704 5102 c-55 -33 -158 -89 -227 -126 -148 -79 -140 -68 -227 -301
-98 -263 -126 -432 -101 -620 20 -150 83 -368 101 -348 4 4 31 76 60 158 29
83 75 206 102 275 28 69 63 161 80 205 16 44 48 122 70 173 46 106 19 83 299
252 l176 106 -44 49 c-24 28 -74 92 -110 143 -36 50 -69 92 -72 92 -3 0 -51
-26 -107 -58z"/>
<path d="M4050 4628 c-60 -82 -112 -210 -130 -320 -31 -192 7 -398 105 -574
106 -189 344 -450 535 -587 115 -81 357 -203 500 -251 165 -55 238 -67 436
-73 252 -8 384 12 554 85 91 38 226 115 275 156 l30 25 -32 1 c-72 0 -276 43
-388 81 -127 43 -304 118 -420 178 l-70 36 419 5 419 5 -92 88 c-249 237 -560
378 -866 394 -193 9 -327 -39 -451 -163 -105 -104 -161 -226 -180 -394 -8 -65
-8 -65 -15 -25 -24 129 1 312 58 418 32 60 158 188 203 207 16 7 30 16 30 20
0 10 -115 54 -191 74 -114 29 -268 29 -389 0 -29 -7 68 50 108 64 26 8 27 11
34 108 4 54 14 119 22 143 9 24 15 45 14 46 -2 1 -41 24 -88 50 -143 80 -252
147 -321 197 -37 26 -69 48 -72 48 -3 0 -19 -19 -37 -42z"/>
</g>
</svg>
